<?xml version="1.0" encoding="utf-8" standalone="no"?>
<!DOCTYPE svg PUBLIC "-//W3C//DTD SVG 1.1//EN"
  "http://www.w3.org/Graphics/SVG/1.1/DTD/svg11.dtd">
<!-- Created with matplotlib (https://matplotlib.org/) -->
<svg height="200pt" version="1.1" viewBox="0 0 723.765625 399.47175" width="361pt" xmlns="http://www.w3.org/2000/svg" xmlns:xlink="http://www.w3.org/1999/xlink">
 <defs>
  <style type="text/css">
*{stroke-linecap:butt;stroke-linejoin:round;}
  </style>
 </defs>
 <g id="figure_1">
  <g id="patch_1">
   <path d="M 0 399.47175 
L 723.765625 399.47175 
L 723.765625 0 
L 0 0 
z
" style="fill:none;"/>
  </g>
  <g id="axes_1">
   <g id="patch_2">
    <path d="M 46.965625 361.9155 
L 716.565625 361.9155 
L 716.565625 35.7555 
L 46.965625 35.7555 
z
" style="fill:#ffffff;"/>
   </g>
   <g id="PolyCollection_1">
    <path clip-path="url(#pa1f0a7319f)" d="M 77.401989 342.030163 
L 77.401989 347.090045 
L 83.613491 347.090045 
L 89.824994 347.090045 
L 96.036497 347.090045 
L 102.248 347.090045 
L 108.459503 347.090045 
L 114.671005 347.090045 
L 120.882508 347.090045 
L 127.094011 347.090045 
L 133.305514 347.090045 
L 139.517016 347.090045 
L 145.728519 347.090045 
L 151.940022 347.090045 
L 158.151525 347.090045 
L 164.363028 347.090045 
L 170.57453 347.090045 
L 176.786033 347.090045 
L 182.997536 347.090045 
L 189.209039 347.090045 
L 195.420542 347.090045 
L 201.632044 347.090045 
L 207.843547 347.090045 
L 214.05505 347.090045 
L 220.266553 347.090045 
L 226.478055 347.090045 
L 232.689558 347.090045 
L 238.901061 347.090045 
L 245.112564 347.090045 
L 251.324067 347.090045 
L 257.535569 347.090045 
L 263.747072 347.090045 
L 269.958575 347.090045 
L 276.170078 347.090045 
L 282.38158 347.090045 
L 288.593083 347.090045 
L 294.804586 347.090045 
L 301.016089 347.090045 
L 307.227592 347.090045 
L 313.439094 347.090045 
L 319.650597 347.090045 
L 325.8621 347.090045 
L 332.073603 347.090045 
L 338.285106 347.090045 
L 344.496608 347.090045 
L 350.708111 347.090045 
L 356.919614 347.090045 
L 363.131117 347.090045 
L 369.342619 347.090045 
L 375.554122 347.090045 
L 381.765625 347.090045 
L 387.977128 347.090045 
L 394.188631 347.090045 
L 400.400133 347.090045 
L 406.611636 347.090045 
L 412.823139 347.090045 
L 419.034642 347.090045 
L 425.246144 347.090045 
L 431.457647 347.090045 
L 437.66915 347.090045 
L 443.880653 347.090045 
L 450.092156 347.090045 
L 456.303658 347.090045 
L 462.515161 347.090045 
L 468.726664 347.090045 
L 474.938167 347.090045 
L 481.14967 347.090045 
L 487.361172 347.090045 
L 493.572675 347.090045 
L 499.784178 347.090045 
L 505.995681 347.090045 
L 512.207183 347.090045 
L 518.418686 347.090045 
L 524.630189 347.090045 
L 530.841692 347.090045 
L 537.053195 347.090045 
L 543.264697 347.090045 
L 549.4762 347.090045 
L 555.687703 347.090045 
L 561.899206 347.090045 
L 568.110708 347.090045 
L 574.322211 347.090045 
L 580.533714 347.090045 
L 586.745217 347.090045 
L 592.95672 347.090045 
L 599.168222 347.090045 
L 605.379725 347.090045 
L 611.591228 347.090045 
L 617.802731 347.090045 
L 624.014234 347.090045 
L 630.225736 347.090045 
L 636.437239 347.090045 
L 642.648742 347.090045 
L 648.860245 347.090045 
L 655.071747 347.090045 
L 661.28325 347.090045 
L 667.494753 347.090045 
L 673.706256 347.090045 
L 679.917759 347.090045 
L 686.129261 347.090045 
L 686.129261 343.04214 
L 686.129261 343.04214 
L 679.917759 346.078069 
L 673.706256 344.054116 
L 667.494753 341.018187 
L 661.28325 342.536152 
L 655.071747 341.018187 
L 648.860245 343.04214 
L 642.648742 343.04214 
L 636.437239 341.524175 
L 630.225736 338.488246 
L 624.014234 342.030163 
L 617.802731 336.464293 
L 611.591228 343.04214 
L 605.379725 330.392435 
L 599.168222 323.3086 
L 592.95672 342.536152 
L 586.745217 340.512199 
L 580.533714 327.356505 
L 574.322211 324.826564 
L 568.110708 330.898423 
L 561.899206 331.404411 
L 555.687703 326.344529 
L 549.4762 337.476269 
L 543.264697 321.284647 
L 537.053195 320.27267 
L 530.841692 314.200812 
L 524.630189 309.646918 
L 518.418686 308.128953 
L 512.207183 332.416387 
L 505.995681 319.260694 
L 499.784178 299.527154 
L 493.572675 283.335531 
L 487.361172 277.263673 
L 481.14967 278.781637 
L 474.938167 287.889425 
L 468.726664 281.817566 
L 462.515161 292.443319 
L 456.303658 306.610989 
L 450.092156 265.119955 
L 443.880653 171.006148 
L 437.66915 274.733731 
L 431.457647 178.089983 
L 425.246144 206.931311 
L 419.034642 249.940309 
L 412.823139 224.13491 
L 406.611636 186.185795 
L 400.400133 152.790573 
L 394.188631 161.898361 
L 387.977128 249.940309 
L 381.765625 255.506179 
L 375.554122 259.048097 
L 369.342619 190.739689 
L 363.131117 171.512137 
L 356.919614 100.167799 
L 350.708111 82.458212 
L 344.496608 101.685764 
L 338.285106 176.572019 
L 332.073603 163.922314 
L 325.8621 143.682785 
L 319.650597 164.93429 
L 313.439094 168.476207 
L 307.227592 101.179776 
L 301.016089 109.275587 
L 294.804586 129.009127 
L 288.593083 161.898361 
L 282.38158 130.527092 
L 276.170078 127.997151 
L 269.958575 62.724672 
L 263.747072 97.637858 
L 257.535569 97.13187 
L 251.324067 122.937269 
L 245.112564 153.296561 
L 238.901061 91.566 
L 232.689558 50.580955 
L 226.478055 70.314495 
L 220.266553 210.473229 
L 214.05505 89.036058 
L 207.843547 230.206769 
L 201.632044 194.787594 
L 195.420542 228.182816 
L 189.209039 174.042078 
L 182.997536 240.326533 
L 176.786033 164.428302 
L 170.57453 262.590014 
L 164.363028 290.419366 
L 158.151525 309.646918 
L 151.940022 282.829543 
L 145.728519 319.260694 
L 139.517016 306.105 
L 133.305514 323.3086 
L 127.094011 320.27267 
L 120.882508 329.886446 
L 114.671005 342.030163 
L 108.459503 310.658894 
L 102.248 326.850517 
L 96.036497 326.850517 
L 89.824994 326.850517 
L 83.613491 332.922376 
L 77.401989 342.030163 
z
" style="fill:#f0f8ff;"/>
   </g>
   <g id="matplotlib.axis_1">
    <g id="xtick_1">
     <g id="line2d_1">
      <path clip-path="url(#pa1f0a7319f)" d="M 71.190486 361.9155 
L 71.190486 35.7555 
" style="fill:none;stroke:#d9d9d9;stroke-linecap:square;"/>
     </g>
     <g id="line2d_2">
      <defs>
       <path d="M 0 0 
L 0 3.5 
" id="m1e7ba92213" style="stroke:#000000;stroke-width:0.8;"/>
      </defs>
      <g>
       <use style="stroke:#000000;stroke-width:0.8;" x="71.190486" xlink:href="#m1e7ba92213" y="361.9155"/>
      </g>
     </g>
     <g id="text_1">
      <!-- 0 -->
      <defs>
       <path d="M 31.78125 66.40625 
Q 24.171875 66.40625 20.328125 58.90625 
Q 16.5 51.421875 16.5 36.375 
Q 16.5 21.390625 20.328125 13.890625 
Q 24.171875 6.390625 31.78125 6.390625 
Q 39.453125 6.390625 43.28125 13.890625 
Q 47.125 21.390625 47.125 36.375 
Q 47.125 51.421875 43.28125 58.90625 
Q 39.453125 66.40625 31.78125 66.40625 
z
M 31.78125 74.21875 
Q 44.046875 74.21875 50.515625 64.515625 
Q 56.984375 54.828125 56.984375 36.375 
Q 56.984375 17.96875 50.515625 8.265625 
Q 44.046875 -1.421875 31.78125 -1.421875 
Q 19.53125 -1.421875 13.0625 8.265625 
Q 6.59375 17.96875 6.59375 36.375 
Q 6.59375 54.828125 13.0625 64.515625 
Q 19.53125 74.21875 31.78125 74.21875 
z
" id="DejaVuSans-48"/>
      </defs>
      <g transform="translate(68.009236 376.513937)scale(0.1 -0.1)">
       <use xlink:href="#DejaVuSans-48"/>
      </g>
     </g>
    </g>
    <g id="xtick_2">
     <g id="line2d_3">
      <path clip-path="url(#pa1f0a7319f)" d="M 195.420542 361.9155 
L 195.420542 35.7555 
" style="fill:none;stroke:#d9d9d9;stroke-linecap:square;"/>
     </g>
     <g id="line2d_4">
      <g>
       <use style="stroke:#000000;stroke-width:0.8;" x="195.420542" xlink:href="#m1e7ba92213" y="361.9155"/>
      </g>
     </g>
     <g id="text_2">
      <!-- 20 -->
      <defs>
       <path d="M 19.1875 8.296875 
L 53.609375 8.296875 
L 53.609375 0 
L 7.328125 0 
L 7.328125 8.296875 
Q 12.9375 14.109375 22.625 23.890625 
Q 32.328125 33.6875 34.8125 36.53125 
Q 39.546875 41.84375 41.421875 45.53125 
Q 43.3125 49.21875 43.3125 52.78125 
Q 43.3125 58.59375 39.234375 62.25 
Q 35.15625 65.921875 28.609375 65.921875 
Q 23.96875 65.921875 18.8125 64.3125 
Q 13.671875 62.703125 7.8125 59.421875 
L 7.8125 69.390625 
Q 13.765625 71.78125 18.9375 73 
Q 24.125 74.21875 28.421875 74.21875 
Q 39.75 74.21875 46.484375 68.546875 
Q 53.21875 62.890625 53.21875 53.421875 
Q 53.21875 48.921875 51.53125 44.890625 
Q 49.859375 40.875 45.40625 35.40625 
Q 44.1875 33.984375 37.640625 27.21875 
Q 31.109375 20.453125 19.1875 8.296875 
z
" id="DejaVuSans-50"/>
      </defs>
      <g transform="translate(189.058042 376.513937)scale(0.1 -0.1)">
       <use xlink:href="#DejaVuSans-50"/>
       <use x="63.623047" xlink:href="#DejaVuSans-48"/>
      </g>
     </g>
    </g>
    <g id="xtick_3">
     <g id="line2d_5">
      <path clip-path="url(#pa1f0a7319f)" d="M 319.650597 361.9155 
L 319.650597 35.7555 
" style="fill:none;stroke:#d9d9d9;stroke-linecap:square;"/>
     </g>
     <g id="line2d_6">
      <g>
       <use style="stroke:#000000;stroke-width:0.8;" x="319.650597" xlink:href="#m1e7ba92213" y="361.9155"/>
      </g>
     </g>
     <g id="text_3">
      <!-- 40 -->
      <defs>
       <path d="M 37.796875 64.3125 
L 12.890625 25.390625 
L 37.796875 25.390625 
z
M 35.203125 72.90625 
L 47.609375 72.90625 
L 47.609375 25.390625 
L 58.015625 25.390625 
L 58.015625 17.1875 
L 47.609375 17.1875 
L 47.609375 0 
L 37.796875 0 
L 37.796875 17.1875 
L 4.890625 17.1875 
L 4.890625 26.703125 
z
" id="DejaVuSans-52"/>
      </defs>
      <g transform="translate(313.288097 376.513937)scale(0.1 -0.1)">
       <use xlink:href="#DejaVuSans-52"/>
       <use x="63.623047" xlink:href="#DejaVuSans-48"/>
      </g>
     </g>
    </g>
    <g id="xtick_4">
     <g id="line2d_7">
      <path clip-path="url(#pa1f0a7319f)" d="M 443.880653 361.9155 
L 443.880653 35.7555 
" style="fill:none;stroke:#d9d9d9;stroke-linecap:square;"/>
     </g>
     <g id="line2d_8">
      <g>
       <use style="stroke:#000000;stroke-width:0.8;" x="443.880653" xlink:href="#m1e7ba92213" y="361.9155"/>
      </g>
     </g>
     <g id="text_4">
      <!-- 60 -->
      <defs>
       <path d="M 33.015625 40.375 
Q 26.375 40.375 22.484375 35.828125 
Q 18.609375 31.296875 18.609375 23.390625 
Q 18.609375 15.53125 22.484375 10.953125 
Q 26.375 6.390625 33.015625 6.390625 
Q 39.65625 6.390625 43.53125 10.953125 
Q 47.40625 15.53125 47.40625 23.390625 
Q 47.40625 31.296875 43.53125 35.828125 
Q 39.65625 40.375 33.015625 40.375 
z
M 52.59375 71.296875 
L 52.59375 62.3125 
Q 48.875 64.0625 45.09375 64.984375 
Q 41.3125 65.921875 37.59375 65.921875 
Q 27.828125 65.921875 22.671875 59.328125 
Q 17.53125 52.734375 16.796875 39.40625 
Q 19.671875 43.65625 24.015625 45.921875 
Q 28.375 48.1875 33.59375 48.1875 
Q 44.578125 48.1875 50.953125 41.515625 
Q 57.328125 34.859375 57.328125 23.390625 
Q 57.328125 12.15625 50.6875 5.359375 
Q 44.046875 -1.421875 33.015625 -1.421875 
Q 20.359375 -1.421875 13.671875 8.265625 
Q 6.984375 17.96875 6.984375 36.375 
Q 6.984375 53.65625 15.1875 63.9375 
Q 23.390625 74.21875 37.203125 74.21875 
Q 40.921875 74.21875 44.703125 73.484375 
Q 48.484375 72.75 52.59375 71.296875 
z
" id="DejaVuSans-54"/>
      </defs>
      <g transform="translate(437.518153 376.513937)scale(0.1 -0.1)">
       <use xlink:href="#DejaVuSans-54"/>
       <use x="63.623047" xlink:href="#DejaVuSans-48"/>
      </g>
     </g>
    </g>
    <g id="xtick_5">
     <g id="line2d_9">
      <path clip-path="url(#pa1f0a7319f)" d="M 568.110708 361.9155 
L 568.110708 35.7555 
" style="fill:none;stroke:#d9d9d9;stroke-linecap:square;"/>
     </g>
     <g id="line2d_10">
      <g>
       <use style="stroke:#000000;stroke-width:0.8;" x="568.110708" xlink:href="#m1e7ba92213" y="361.9155"/>
      </g>
     </g>
     <g id="text_5">
      <!-- 80 -->
      <defs>
       <path d="M 31.78125 34.625 
Q 24.75 34.625 20.71875 30.859375 
Q 16.703125 27.09375 16.703125 20.515625 
Q 16.703125 13.921875 20.71875 10.15625 
Q 24.75 6.390625 31.78125 6.390625 
Q 38.8125 6.390625 42.859375 10.171875 
Q 46.921875 13.96875 46.921875 20.515625 
Q 46.921875 27.09375 42.890625 30.859375 
Q 38.875 34.625 31.78125 34.625 
z
M 21.921875 38.8125 
Q 15.578125 40.375 12.03125 44.71875 
Q 8.5 49.078125 8.5 55.328125 
Q 8.5 64.0625 14.71875 69.140625 
Q 20.953125 74.21875 31.78125 74.21875 
Q 42.671875 74.21875 48.875 69.140625 
Q 55.078125 64.0625 55.078125 55.328125 
Q 55.078125 49.078125 51.53125 44.71875 
Q 48 40.375 41.703125 38.8125 
Q 48.828125 37.15625 52.796875 32.3125 
Q 56.78125 27.484375 56.78125 20.515625 
Q 56.78125 9.90625 50.3125 4.234375 
Q 43.84375 -1.421875 31.78125 -1.421875 
Q 19.734375 -1.421875 13.25 4.234375 
Q 6.78125 9.90625 6.78125 20.515625 
Q 6.78125 27.484375 10.78125 32.3125 
Q 14.796875 37.15625 21.921875 38.8125 
z
M 18.3125 54.390625 
Q 18.3125 48.734375 21.84375 45.5625 
Q 25.390625 42.390625 31.78125 42.390625 
Q 38.140625 42.390625 41.71875 45.5625 
Q 45.3125 48.734375 45.3125 54.390625 
Q 45.3125 60.0625 41.71875 63.234375 
Q 38.140625 66.40625 31.78125 66.40625 
Q 25.390625 66.40625 21.84375 63.234375 
Q 18.3125 60.0625 18.3125 54.390625 
z
" id="DejaVuSans-56"/>
      </defs>
      <g transform="translate(561.748208 376.513937)scale(0.1 -0.1)">
       <use xlink:href="#DejaVuSans-56"/>
       <use x="63.623047" xlink:href="#DejaVuSans-48"/>
      </g>
     </g>
    </g>
    <g id="xtick_6">
     <g id="line2d_11">
      <path clip-path="url(#pa1f0a7319f)" d="M 692.340764 361.9155 
L 692.340764 35.7555 
" style="fill:none;stroke:#d9d9d9;stroke-linecap:square;"/>
     </g>
     <g id="line2d_12">
      <g>
       <use style="stroke:#000000;stroke-width:0.8;" x="692.340764" xlink:href="#m1e7ba92213" y="361.9155"/>
      </g>
     </g>
     <g id="text_6">
      <!-- 100 -->
      <defs>
       <path d="M 12.40625 8.296875 
L 28.515625 8.296875 
L 28.515625 63.921875 
L 10.984375 60.40625 
L 10.984375 69.390625 
L 28.421875 72.90625 
L 38.28125 72.90625 
L 38.28125 8.296875 
L 54.390625 8.296875 
L 54.390625 0 
L 12.40625 0 
z
" id="DejaVuSans-49"/>
      </defs>
      <g transform="translate(682.797014 376.513937)scale(0.1 -0.1)">
       <use xlink:href="#DejaVuSans-49"/>
       <use x="63.623047" xlink:href="#DejaVuSans-48"/>
       <use x="127.246094" xlink:href="#DejaVuSans-48"/>
      </g>
     </g>
    </g>
    <g id="text_7">
     <!-- giorni dal 24 febbraio 2020 -->
     <defs>
      <path d="M 45.40625 27.984375 
Q 45.40625 37.75 41.375 43.109375 
Q 37.359375 48.484375 30.078125 48.484375 
Q 22.859375 48.484375 18.828125 43.109375 
Q 14.796875 37.75 14.796875 27.984375 
Q 14.796875 18.265625 18.828125 12.890625 
Q 22.859375 7.515625 30.078125 7.515625 
Q 37.359375 7.515625 41.375 12.890625 
Q 45.40625 18.265625 45.40625 27.984375 
z
M 54.390625 6.78125 
Q 54.390625 -7.171875 48.1875 -13.984375 
Q 42 -20.796875 29.203125 -20.796875 
Q 24.46875 -20.796875 20.265625 -20.09375 
Q 16.0625 -19.390625 12.109375 -17.921875 
L 12.109375 -9.1875 
Q 16.0625 -11.328125 19.921875 -12.34375 
Q 23.78125 -13.375 27.78125 -13.375 
Q 36.625 -13.375 41.015625 -8.765625 
Q 45.40625 -4.15625 45.40625 5.171875 
L 45.40625 9.625 
Q 42.625 4.78125 38.28125 2.390625 
Q 33.9375 0 27.875 0 
Q 17.828125 0 11.671875 7.65625 
Q 5.515625 15.328125 5.515625 27.984375 
Q 5.515625 40.671875 11.671875 48.328125 
Q 17.828125 56 27.875 56 
Q 33.9375 56 38.28125 53.609375 
Q 42.625 51.21875 45.40625 46.390625 
L 45.40625 54.6875 
L 54.390625 54.6875 
z
" id="DejaVuSans-103"/>
      <path d="M 9.421875 54.6875 
L 18.40625 54.6875 
L 18.40625 0 
L 9.421875 0 
z
M 9.421875 75.984375 
L 18.40625 75.984375 
L 18.40625 64.59375 
L 9.421875 64.59375 
z
" id="DejaVuSans-105"/>
      <path d="M 30.609375 48.390625 
Q 23.390625 48.390625 19.1875 42.75 
Q 14.984375 37.109375 14.984375 27.296875 
Q 14.984375 17.484375 19.15625 11.84375 
Q 23.34375 6.203125 30.609375 6.203125 
Q 37.796875 6.203125 41.984375 11.859375 
Q 46.1875 17.53125 46.1875 27.296875 
Q 46.1875 37.015625 41.984375 42.703125 
Q 37.796875 48.390625 30.609375 48.390625 
z
M 30.609375 56 
Q 42.328125 56 49.015625 48.375 
Q 55.71875 40.765625 55.71875 27.296875 
Q 55.71875 13.875 49.015625 6.21875 
Q 42.328125 -1.421875 30.609375 -1.421875 
Q 18.84375 -1.421875 12.171875 6.21875 
Q 5.515625 13.875 5.515625 27.296875 
Q 5.515625 40.765625 12.171875 48.375 
Q 18.84375 56 30.609375 56 
z
" id="DejaVuSans-111"/>
      <path d="M 41.109375 46.296875 
Q 39.59375 47.171875 37.8125 47.578125 
Q 36.03125 48 33.890625 48 
Q 26.265625 48 22.1875 43.046875 
Q 18.109375 38.09375 18.109375 28.8125 
L 18.109375 0 
L 9.078125 0 
L 9.078125 54.6875 
L 18.109375 54.6875 
L 18.109375 46.1875 
Q 20.953125 51.171875 25.484375 53.578125 
Q 30.03125 56 36.53125 56 
Q 37.453125 56 38.578125 55.875 
Q 39.703125 55.765625 41.0625 55.515625 
z
" id="DejaVuSans-114"/>
      <path d="M 54.890625 33.015625 
L 54.890625 0 
L 45.90625 0 
L 45.90625 32.71875 
Q 45.90625 40.484375 42.875 44.328125 
Q 39.84375 48.1875 33.796875 48.1875 
Q 26.515625 48.1875 22.3125 43.546875 
Q 18.109375 38.921875 18.109375 30.90625 
L 18.109375 0 
L 9.078125 0 
L 9.078125 54.6875 
L 18.109375 54.6875 
L 18.109375 46.1875 
Q 21.34375 51.125 25.703125 53.5625 
Q 30.078125 56 35.796875 56 
Q 45.21875 56 50.046875 50.171875 
Q 54.890625 44.34375 54.890625 33.015625 
z
" id="DejaVuSans-110"/>
      <path id="DejaVuSans-32"/>
      <path d="M 45.40625 46.390625 
L 45.40625 75.984375 
L 54.390625 75.984375 
L 54.390625 0 
L 45.40625 0 
L 45.40625 8.203125 
Q 42.578125 3.328125 38.25 0.953125 
Q 33.9375 -1.421875 27.875 -1.421875 
Q 17.96875 -1.421875 11.734375 6.484375 
Q 5.515625 14.40625 5.515625 27.296875 
Q 5.515625 40.1875 11.734375 48.09375 
Q 17.96875 56 27.875 56 
Q 33.9375 56 38.25 53.625 
Q 42.578125 51.265625 45.40625 46.390625 
z
M 14.796875 27.296875 
Q 14.796875 17.390625 18.875 11.75 
Q 22.953125 6.109375 30.078125 6.109375 
Q 37.203125 6.109375 41.296875 11.75 
Q 45.40625 17.390625 45.40625 27.296875 
Q 45.40625 37.203125 41.296875 42.84375 
Q 37.203125 48.484375 30.078125 48.484375 
Q 22.953125 48.484375 18.875 42.84375 
Q 14.796875 37.203125 14.796875 27.296875 
z
" id="DejaVuSans-100"/>
      <path d="M 34.28125 27.484375 
Q 23.390625 27.484375 19.1875 25 
Q 14.984375 22.515625 14.984375 16.5 
Q 14.984375 11.71875 18.140625 8.90625 
Q 21.296875 6.109375 26.703125 6.109375 
Q 34.1875 6.109375 38.703125 11.40625 
Q 43.21875 16.703125 43.21875 25.484375 
L 43.21875 27.484375 
z
M 52.203125 31.203125 
L 52.203125 0 
L 43.21875 0 
L 43.21875 8.296875 
Q 40.140625 3.328125 35.546875 0.953125 
Q 30.953125 -1.421875 24.3125 -1.421875 
Q 15.921875 -1.421875 10.953125 3.296875 
Q 6 8.015625 6 15.921875 
Q 6 25.140625 12.171875 29.828125 
Q 18.359375 34.515625 30.609375 34.515625 
L 43.21875 34.515625 
L 43.21875 35.40625 
Q 43.21875 41.609375 39.140625 45 
Q 35.0625 48.390625 27.6875 48.390625 
Q 23 48.390625 18.546875 47.265625 
Q 14.109375 46.140625 10.015625 43.890625 
L 10.015625 52.203125 
Q 14.9375 54.109375 19.578125 55.046875 
Q 24.21875 56 28.609375 56 
Q 40.484375 56 46.34375 49.84375 
Q 52.203125 43.703125 52.203125 31.203125 
z
" id="DejaVuSans-97"/>
      <path d="M 9.421875 75.984375 
L 18.40625 75.984375 
L 18.40625 0 
L 9.421875 0 
z
" id="DejaVuSans-108"/>
      <path d="M 37.109375 75.984375 
L 37.109375 68.5 
L 28.515625 68.5 
Q 23.6875 68.5 21.796875 66.546875 
Q 19.921875 64.59375 19.921875 59.515625 
L 19.921875 54.6875 
L 34.71875 54.6875 
L 34.71875 47.703125 
L 19.921875 47.703125 
L 19.921875 0 
L 10.890625 0 
L 10.890625 47.703125 
L 2.296875 47.703125 
L 2.296875 54.6875 
L 10.890625 54.6875 
L 10.890625 58.5 
Q 10.890625 67.625 15.140625 71.796875 
Q 19.390625 75.984375 28.609375 75.984375 
z
" id="DejaVuSans-102"/>
      <path d="M 56.203125 29.59375 
L 56.203125 25.203125 
L 14.890625 25.203125 
Q 15.484375 15.921875 20.484375 11.0625 
Q 25.484375 6.203125 34.421875 6.203125 
Q 39.59375 6.203125 44.453125 7.46875 
Q 49.3125 8.734375 54.109375 11.28125 
L 54.109375 2.78125 
Q 49.265625 0.734375 44.1875 -0.34375 
Q 39.109375 -1.421875 33.890625 -1.421875 
Q 20.796875 -1.421875 13.15625 6.1875 
Q 5.515625 13.8125 5.515625 26.8125 
Q 5.515625 40.234375 12.765625 48.109375 
Q 20.015625 56 32.328125 56 
Q 43.359375 56 49.78125 48.890625 
Q 56.203125 41.796875 56.203125 29.59375 
z
M 47.21875 32.234375 
Q 47.125 39.59375 43.09375 43.984375 
Q 39.0625 48.390625 32.421875 48.390625 
Q 24.90625 48.390625 20.390625 44.140625 
Q 15.875 39.890625 15.1875 32.171875 
z
" id="DejaVuSans-101"/>
      <path d="M 48.6875 27.296875 
Q 48.6875 37.203125 44.609375 42.84375 
Q 40.53125 48.484375 33.40625 48.484375 
Q 26.265625 48.484375 22.1875 42.84375 
Q 18.109375 37.203125 18.109375 27.296875 
Q 18.109375 17.390625 22.1875 11.75 
Q 26.265625 6.109375 33.40625 6.109375 
Q 40.53125 6.109375 44.609375 11.75 
Q 48.6875 17.390625 48.6875 27.296875 
z
M 18.109375 46.390625 
Q 20.953125 51.265625 25.265625 53.625 
Q 29.59375 56 35.59375 56 
Q 45.5625 56 51.78125 48.09375 
Q 58.015625 40.1875 58.015625 27.296875 
Q 58.015625 14.40625 51.78125 6.484375 
Q 45.5625 -1.421875 35.59375 -1.421875 
Q 29.59375 -1.421875 25.265625 0.953125 
Q 20.953125 3.328125 18.109375 8.203125 
L 18.109375 0 
L 9.078125 0 
L 9.078125 75.984375 
L 18.109375 75.984375 
z
" id="DejaVuSans-98"/>
     </defs>
     <g transform="translate(313.792969 390.192062)scale(0.1 -0.1)">
      <use xlink:href="#DejaVuSans-103"/>
      <use x="63.476562" xlink:href="#DejaVuSans-105"/>
      <use x="91.259766" xlink:href="#DejaVuSans-111"/>
      <use x="152.441406" xlink:href="#DejaVuSans-114"/>
      <use x="191.804688" xlink:href="#DejaVuSans-110"/>
      <use x="255.183594" xlink:href="#DejaVuSans-105"/>
      <use x="282.966797" xlink:href="#DejaVuSans-32"/>
      <use x="314.753906" xlink:href="#DejaVuSans-100"/>
      <use x="378.230469" xlink:href="#DejaVuSans-97"/>
      <use x="439.509766" xlink:href="#DejaVuSans-108"/>
      <use x="467.292969" xlink:href="#DejaVuSans-32"/>
      <use x="499.080078" xlink:href="#DejaVuSans-50"/>
      <use x="562.703125" xlink:href="#DejaVuSans-52"/>
      <use x="626.326172" xlink:href="#DejaVuSans-32"/>
      <use x="658.113281" xlink:href="#DejaVuSans-102"/>
      <use x="693.318359" xlink:href="#DejaVuSans-101"/>
      <use x="754.841797" xlink:href="#DejaVuSans-98"/>
      <use x="818.318359" xlink:href="#DejaVuSans-98"/>
      <use x="881.794922" xlink:href="#DejaVuSans-114"/>
      <use x="922.908203" xlink:href="#DejaVuSans-97"/>
      <use x="984.1875" xlink:href="#DejaVuSans-105"/>
      <use x="1011.970703" xlink:href="#DejaVuSans-111"/>
      <use x="1073.152344" xlink:href="#DejaVuSans-32"/>
      <use x="1104.939453" xlink:href="#DejaVuSans-50"/>
      <use x="1168.5625" xlink:href="#DejaVuSans-48"/>
      <use x="1232.185547" xlink:href="#DejaVuSans-50"/>
      <use x="1295.808594" xlink:href="#DejaVuSans-48"/>
     </g>
    </g>
   </g>
   <g id="matplotlib.axis_2">
    <g id="ytick_1">
     <g id="line2d_13">
      <path clip-path="url(#pa1f0a7319f)" d="M 46.965625 347.090045 
L 716.565625 347.090045 
" style="fill:none;stroke:#d9d9d9;stroke-linecap:square;"/>
     </g>
     <g id="line2d_14">
      <defs>
       <path d="M 0 0 
L -3.5 0 
" id="m9aac9733e8" style="stroke:#000000;stroke-width:0.8;"/>
      </defs>
      <g>
       <use style="stroke:#000000;stroke-width:0.8;" x="46.965625" xlink:href="#m9aac9733e8" y="347.090045"/>
      </g>
     </g>
     <g id="text_8">
      <!-- 0 -->
      <g transform="translate(33.603125 350.889264)scale(0.1 -0.1)">
       <use xlink:href="#DejaVuSans-48"/>
      </g>
     </g>
    </g>
    <g id="ytick_2">
     <g id="line2d_15">
      <path clip-path="url(#pa1f0a7319f)" d="M 46.965625 296.491224 
L 716.565625 296.491224 
" style="fill:none;stroke:#d9d9d9;stroke-linecap:square;"/>
     </g>
     <g id="line2d_16">
      <g>
       <use style="stroke:#000000;stroke-width:0.8;" x="46.965625" xlink:href="#m9aac9733e8" y="296.491224"/>
      </g>
     </g>
     <g id="text_9">
      <!-- 100 -->
      <g transform="translate(20.878125 300.290443)scale(0.1 -0.1)">
       <use xlink:href="#DejaVuSans-49"/>
       <use x="63.623047" xlink:href="#DejaVuSans-48"/>
       <use x="127.246094" xlink:href="#DejaVuSans-48"/>
      </g>
     </g>
    </g>
    <g id="ytick_3">
     <g id="line2d_17">
      <path clip-path="url(#pa1f0a7319f)" d="M 46.965625 245.892404 
L 716.565625 245.892404 
" style="fill:none;stroke:#d9d9d9;stroke-linecap:square;"/>
     </g>
     <g id="line2d_18">
      <g>
       <use style="stroke:#000000;stroke-width:0.8;" x="46.965625" xlink:href="#m9aac9733e8" y="245.892404"/>
      </g>
     </g>
     <g id="text_10">
      <!-- 200 -->
      <g transform="translate(20.878125 249.691622)scale(0.1 -0.1)">
       <use xlink:href="#DejaVuSans-50"/>
       <use x="63.623047" xlink:href="#DejaVuSans-48"/>
       <use x="127.246094" xlink:href="#DejaVuSans-48"/>
      </g>
     </g>
    </g>
    <g id="ytick_4">
     <g id="line2d_19">
      <path clip-path="url(#pa1f0a7319f)" d="M 46.965625 195.293583 
L 716.565625 195.293583 
" style="fill:none;stroke:#d9d9d9;stroke-linecap:square;"/>
     </g>
     <g id="line2d_20">
      <g>
       <use style="stroke:#000000;stroke-width:0.8;" x="46.965625" xlink:href="#m9aac9733e8" y="195.293583"/>
      </g>
     </g>
     <g id="text_11">
      <!-- 300 -->
      <defs>
       <path d="M 40.578125 39.3125 
Q 47.65625 37.796875 51.625 33 
Q 55.609375 28.21875 55.609375 21.1875 
Q 55.609375 10.40625 48.1875 4.484375 
Q 40.765625 -1.421875 27.09375 -1.421875 
Q 22.515625 -1.421875 17.65625 -0.515625 
Q 12.796875 0.390625 7.625 2.203125 
L 7.625 11.71875 
Q 11.71875 9.328125 16.59375 8.109375 
Q 21.484375 6.890625 26.8125 6.890625 
Q 36.078125 6.890625 40.9375 10.546875 
Q 45.796875 14.203125 45.796875 21.1875 
Q 45.796875 27.640625 41.28125 31.265625 
Q 36.765625 34.90625 28.71875 34.90625 
L 20.21875 34.90625 
L 20.21875 43.015625 
L 29.109375 43.015625 
Q 36.375 43.015625 40.234375 45.921875 
Q 44.09375 48.828125 44.09375 54.296875 
Q 44.09375 59.90625 40.109375 62.90625 
Q 36.140625 65.921875 28.71875 65.921875 
Q 24.65625 65.921875 20.015625 65.03125 
Q 15.375 64.15625 9.8125 62.3125 
L 9.8125 71.09375 
Q 15.4375 72.65625 20.34375 73.4375 
Q 25.25 74.21875 29.59375 74.21875 
Q 40.828125 74.21875 47.359375 69.109375 
Q 53.90625 64.015625 53.90625 55.328125 
Q 53.90625 49.265625 50.4375 45.09375 
Q 46.96875 40.921875 40.578125 39.3125 
z
" id="DejaVuSans-51"/>
      </defs>
      <g transform="translate(20.878125 199.092801)scale(0.1 -0.1)">
       <use xlink:href="#DejaVuSans-51"/>
       <use x="63.623047" xlink:href="#DejaVuSans-48"/>
       <use x="127.246094" xlink:href="#DejaVuSans-48"/>
      </g>
     </g>
    </g>
    <g id="ytick_5">
     <g id="line2d_21">
      <path clip-path="url(#pa1f0a7319f)" d="M 46.965625 144.694762 
L 716.565625 144.694762 
" style="fill:none;stroke:#d9d9d9;stroke-linecap:square;"/>
     </g>
     <g id="line2d_22">
      <g>
       <use style="stroke:#000000;stroke-width:0.8;" x="46.965625" xlink:href="#m9aac9733e8" y="144.694762"/>
      </g>
     </g>
     <g id="text_12">
      <!-- 400 -->
      <g transform="translate(20.878125 148.49398)scale(0.1 -0.1)">
       <use xlink:href="#DejaVuSans-52"/>
       <use x="63.623047" xlink:href="#DejaVuSans-48"/>
       <use x="127.246094" xlink:href="#DejaVuSans-48"/>
      </g>
     </g>
    </g>
    <g id="ytick_6">
     <g id="line2d_23">
      <path clip-path="url(#pa1f0a7319f)" d="M 46.965625 94.095941 
L 716.565625 94.095941 
" style="fill:none;stroke:#d9d9d9;stroke-linecap:square;"/>
     </g>
     <g id="line2d_24">
      <g>
       <use style="stroke:#000000;stroke-width:0.8;" x="46.965625" xlink:href="#m9aac9733e8" y="94.095941"/>
      </g>
     </g>
     <g id="text_13">
      <!-- 500 -->
      <defs>
       <path d="M 10.796875 72.90625 
L 49.515625 72.90625 
L 49.515625 64.59375 
L 19.828125 64.59375 
L 19.828125 46.734375 
Q 21.96875 47.46875 24.109375 47.828125 
Q 26.265625 48.1875 28.421875 48.1875 
Q 40.625 48.1875 47.75 41.5 
Q 54.890625 34.8125 54.890625 23.390625 
Q 54.890625 11.625 47.5625 5.09375 
Q 40.234375 -1.421875 26.90625 -1.421875 
Q 22.3125 -1.421875 17.546875 -0.640625 
Q 12.796875 0.140625 7.71875 1.703125 
L 7.71875 11.625 
Q 12.109375 9.234375 16.796875 8.0625 
Q 21.484375 6.890625 26.703125 6.890625 
Q 35.15625 6.890625 40.078125 11.328125 
Q 45.015625 15.765625 45.015625 23.390625 
Q 45.015625 31 40.078125 35.4375 
Q 35.15625 39.890625 26.703125 39.890625 
Q 22.75 39.890625 18.8125 39.015625 
Q 14.890625 38.140625 10.796875 36.28125 
z
" id="DejaVuSans-53"/>
      </defs>
      <g transform="translate(20.878125 97.895159)scale(0.1 -0.1)">
       <use xlink:href="#DejaVuSans-53"/>
       <use x="63.623047" xlink:href="#DejaVuSans-48"/>
       <use x="127.246094" xlink:href="#DejaVuSans-48"/>
      </g>
     </g>
    </g>
    <g id="ytick_7">
     <g id="line2d_25">
      <path clip-path="url(#pa1f0a7319f)" d="M 46.965625 43.49712 
L 716.565625 43.49712 
" style="fill:none;stroke:#d9d9d9;stroke-linecap:square;"/>
     </g>
     <g id="line2d_26">
      <g>
       <use style="stroke:#000000;stroke-width:0.8;" x="46.965625" xlink:href="#m9aac9733e8" y="43.49712"/>
      </g>
     </g>
     <g id="text_14">
      <!-- 600 -->
      <g transform="translate(20.878125 47.296338)scale(0.1 -0.1)">
       <use xlink:href="#DejaVuSans-54"/>
       <use x="63.623047" xlink:href="#DejaVuSans-48"/>
       <use x="127.246094" xlink:href="#DejaVuSans-48"/>
      </g>
     </g>
    </g>
    <g id="text_15">
     <!-- nuovi positivi giornalieri -->
     <defs>
      <path d="M 8.5 21.578125 
L 8.5 54.6875 
L 17.484375 54.6875 
L 17.484375 21.921875 
Q 17.484375 14.15625 20.5 10.265625 
Q 23.53125 6.390625 29.59375 6.390625 
Q 36.859375 6.390625 41.078125 11.03125 
Q 45.3125 15.671875 45.3125 23.6875 
L 45.3125 54.6875 
L 54.296875 54.6875 
L 54.296875 0 
L 45.3125 0 
L 45.3125 8.40625 
Q 42.046875 3.421875 37.71875 1 
Q 33.40625 -1.421875 27.6875 -1.421875 
Q 18.265625 -1.421875 13.375 4.4375 
Q 8.5 10.296875 8.5 21.578125 
z
M 31.109375 56 
z
" id="DejaVuSans-117"/>
      <path d="M 2.984375 54.6875 
L 12.5 54.6875 
L 29.59375 8.796875 
L 46.6875 54.6875 
L 56.203125 54.6875 
L 35.6875 0 
L 23.484375 0 
z
" id="DejaVuSans-118"/>
      <path d="M 18.109375 8.203125 
L 18.109375 -20.796875 
L 9.078125 -20.796875 
L 9.078125 54.6875 
L 18.109375 54.6875 
L 18.109375 46.390625 
Q 20.953125 51.265625 25.265625 53.625 
Q 29.59375 56 35.59375 56 
Q 45.5625 56 51.78125 48.09375 
Q 58.015625 40.1875 58.015625 27.296875 
Q 58.015625 14.40625 51.78125 6.484375 
Q 45.5625 -1.421875 35.59375 -1.421875 
Q 29.59375 -1.421875 25.265625 0.953125 
Q 20.953125 3.328125 18.109375 8.203125 
z
M 48.6875 27.296875 
Q 48.6875 37.203125 44.609375 42.84375 
Q 40.53125 48.484375 33.40625 48.484375 
Q 26.265625 48.484375 22.1875 42.84375 
Q 18.109375 37.203125 18.109375 27.296875 
Q 18.109375 17.390625 22.1875 11.75 
Q 26.265625 6.109375 33.40625 6.109375 
Q 40.53125 6.109375 44.609375 11.75 
Q 48.6875 17.390625 48.6875 27.296875 
z
" id="DejaVuSans-112"/>
      <path d="M 44.28125 53.078125 
L 44.28125 44.578125 
Q 40.484375 46.53125 36.375 47.5 
Q 32.28125 48.484375 27.875 48.484375 
Q 21.1875 48.484375 17.84375 46.4375 
Q 14.5 44.390625 14.5 40.28125 
Q 14.5 37.15625 16.890625 35.375 
Q 19.28125 33.59375 26.515625 31.984375 
L 29.59375 31.296875 
Q 39.15625 29.25 43.1875 25.515625 
Q 47.21875 21.78125 47.21875 15.09375 
Q 47.21875 7.46875 41.1875 3.015625 
Q 35.15625 -1.421875 24.609375 -1.421875 
Q 20.21875 -1.421875 15.453125 -0.5625 
Q 10.6875 0.296875 5.421875 2 
L 5.421875 11.28125 
Q 10.40625 8.6875 15.234375 7.390625 
Q 20.0625 6.109375 24.8125 6.109375 
Q 31.15625 6.109375 34.5625 8.28125 
Q 37.984375 10.453125 37.984375 14.40625 
Q 37.984375 18.0625 35.515625 20.015625 
Q 33.0625 21.96875 24.703125 23.78125 
L 21.578125 24.515625 
Q 13.234375 26.265625 9.515625 29.90625 
Q 5.8125 33.546875 5.8125 39.890625 
Q 5.8125 47.609375 11.28125 51.796875 
Q 16.75 56 26.8125 56 
Q 31.78125 56 36.171875 55.265625 
Q 40.578125 54.546875 44.28125 53.078125 
z
" id="DejaVuSans-115"/>
      <path d="M 18.3125 70.21875 
L 18.3125 54.6875 
L 36.8125 54.6875 
L 36.8125 47.703125 
L 18.3125 47.703125 
L 18.3125 18.015625 
Q 18.3125 11.328125 20.140625 9.421875 
Q 21.96875 7.515625 27.59375 7.515625 
L 36.8125 7.515625 
L 36.8125 0 
L 27.59375 0 
Q 17.1875 0 13.234375 3.875 
Q 9.28125 7.765625 9.28125 18.015625 
L 9.28125 47.703125 
L 2.6875 47.703125 
L 2.6875 54.6875 
L 9.28125 54.6875 
L 9.28125 70.21875 
z
" id="DejaVuSans-116"/>
     </defs>
     <g transform="translate(14.798438 258.806594)rotate(-90)scale(0.1 -0.1)">
      <use xlink:href="#DejaVuSans-110"/>
      <use x="63.378906" xlink:href="#DejaVuSans-117"/>
      <use x="126.757812" xlink:href="#DejaVuSans-111"/>
      <use x="187.939453" xlink:href="#DejaVuSans-118"/>
      <use x="247.119141" xlink:href="#DejaVuSans-105"/>
      <use x="274.902344" xlink:href="#DejaVuSans-32"/>
      <use x="306.689453" xlink:href="#DejaVuSans-112"/>
      <use x="370.166016" xlink:href="#DejaVuSans-111"/>
      <use x="431.347656" xlink:href="#DejaVuSans-115"/>
      <use x="483.447266" xlink:href="#DejaVuSans-105"/>
      <use x="511.230469" xlink:href="#DejaVuSans-116"/>
      <use x="550.439453" xlink:href="#DejaVuSans-105"/>
      <use x="578.222656" xlink:href="#DejaVuSans-118"/>
      <use x="637.402344" xlink:href="#DejaVuSans-105"/>
      <use x="665.185547" xlink:href="#DejaVuSans-32"/>
      <use x="696.972656" xlink:href="#DejaVuSans-103"/>
      <use x="760.449219" xlink:href="#DejaVuSans-105"/>
      <use x="788.232422" xlink:href="#DejaVuSans-111"/>
      <use x="849.414062" xlink:href="#DejaVuSans-114"/>
      <use x="888.777344" xlink:href="#DejaVuSans-110"/>
      <use x="952.15625" xlink:href="#DejaVuSans-97"/>
      <use x="1013.435547" xlink:href="#DejaVuSans-108"/>
      <use x="1041.21875" xlink:href="#DejaVuSans-105"/>
      <use x="1069.001953" xlink:href="#DejaVuSans-101"/>
      <use x="1130.525391" xlink:href="#DejaVuSans-114"/>
      <use x="1171.638672" xlink:href="#DejaVuSans-105"/>
     </g>
    </g>
   </g>
   <g id="line2d_27">
    <path clip-path="url(#pa1f0a7319f)" d="M 77.401989 328.232024 
L 83.613491 326.238476 
L 89.824994 324.044664 
L 96.036497 321.632837 
L 102.248 318.984206 
L 108.459503 316.079017 
L 114.671005 312.896661 
L 120.882508 309.415832 
L 127.094011 305.614747 
L 133.305514 301.471433 
L 139.517016 296.964093 
L 145.728519 292.071571 
L 151.940022 286.773915 
L 158.151525 281.053056 
L 164.363028 274.893604 
L 170.57453 268.283782 
L 176.786033 261.216469 
L 182.997536 253.690374 
L 189.209039 245.711299 
L 195.420542 237.29348 
L 201.632044 228.460948 
L 207.843547 219.248867 
L 214.05505 209.704755 
L 220.266553 199.889517 
L 226.478055 189.878175 
L 232.689558 179.760178 
L 238.901061 169.639191 
L 245.112564 159.632238 
L 251.324067 149.868126 
L 257.535569 140.485082 
L 263.747072 131.627612 
L 269.958575 123.44262 
L 276.170078 116.074908 
L 282.38158 109.662256 
L 288.593083 104.330313 
L 294.804586 100.187612 
L 301.016089 97.321024 
L 307.227592 95.79196 
L 313.439094 95.633614 
L 319.650597 96.849441 
L 325.8621 99.412998 
L 332.073603 103.269157 
L 338.285106 108.336598 
L 344.496608 114.511388 
L 350.708111 121.671382 
L 356.919614 129.681136 
L 363.131117 138.397015 
L 369.342619 147.672182 
L 375.554122 157.361212 
L 381.765625 167.324126 
L 387.977128 177.429715 
L 394.188631 187.558079 
L 400.400133 197.602382 
L 406.611636 207.469864 
L 412.823139 217.082199 
L 419.034642 226.375288 
L 425.246144 235.298615 
L 431.457647 243.814282 
L 437.66915 251.895812 
L 443.880653 259.526839 
L 450.092156 266.699743 
L 456.303658 273.414298 
L 462.515161 279.676392 
L 468.726664 285.496832 
L 474.938167 290.890261 
L 481.14967 295.874208 
L 487.361172 300.468257 
L 493.572675 304.693343 
L 499.784178 308.571157 
L 505.995681 312.123668 
L 512.207183 315.372732 
L 518.418686 318.339785 
L 524.630189 321.045614 
L 530.841692 323.51018 
L 537.053195 325.7525 
L 543.264697 327.790571 
L 549.4762 329.641319 
L 555.687703 331.320589 
L 561.899206 332.843146 
L 568.110708 334.222697 
L 574.322211 335.471924 
L 580.533714 336.602528 
L 586.745217 337.625273 
L 592.95672 338.550043 
L 599.168222 339.385892 
L 605.379725 340.141101 
L 611.591228 340.823229 
L 617.802731 341.43917 
L 624.014234 341.9952 
L 630.225736 342.497029 
L 636.437239 342.949843 
L 642.648742 343.358353 
L 648.860245 343.72683 
L 655.071747 344.059144 
L 661.28325 344.358803 
L 667.494753 344.628983 
L 673.706256 344.872554 
L 679.917759 345.092116 
L 686.129261 345.290017 
" style="fill:none;stroke:#ff7f0e;stroke-linecap:square;stroke-width:3;"/>
   </g>
   <g id="line2d_28">
    <path clip-path="url(#pa1f0a7319f)" d="M 77.401989 342.030163 
L 83.613491 332.922376 
L 89.824994 326.850517 
L 96.036497 326.850517 
L 102.248 326.850517 
L 108.459503 310.658894 
L 114.671005 342.030163 
L 120.882508 329.886446 
L 127.094011 320.27267 
L 133.305514 323.3086 
L 139.517016 306.105 
L 145.728519 319.260694 
L 151.940022 282.829543 
L 158.151525 309.646918 
L 164.363028 290.419366 
L 170.57453 262.590014 
L 176.786033 164.428302 
L 182.997536 240.326533 
L 189.209039 174.042078 
L 195.420542 228.182816 
L 201.632044 194.787594 
L 207.843547 230.206769 
L 214.05505 89.036058 
L 220.266553 210.473229 
L 226.478055 70.314495 
L 232.689558 50.580955 
L 238.901061 91.566 
L 245.112564 153.296561 
L 251.324067 122.937269 
L 257.535569 97.13187 
L 263.747072 97.637858 
L 269.958575 62.724672 
L 276.170078 127.997151 
L 282.38158 130.527092 
L 288.593083 161.898361 
L 294.804586 129.009127 
L 301.016089 109.275587 
L 307.227592 101.179776 
L 313.439094 168.476207 
L 319.650597 164.93429 
L 325.8621 143.682785 
L 332.073603 163.922314 
L 338.285106 176.572019 
L 344.496608 101.685764 
L 350.708111 82.458212 
L 356.919614 100.167799 
L 363.131117 171.512137 
L 369.342619 190.739689 
L 375.554122 259.048097 
L 381.765625 255.506179 
L 387.977128 249.940309 
L 394.188631 161.898361 
L 400.400133 152.790573 
L 406.611636 186.185795 
L 412.823139 224.13491 
L 419.034642 249.940309 
L 425.246144 206.931311 
L 431.457647 178.089983 
L 437.66915 274.733731 
L 443.880653 171.006148 
L 450.092156 265.119955 
L 456.303658 306.610989 
L 462.515161 292.443319 
L 468.726664 281.817566 
L 474.938167 287.889425 
L 481.14967 278.781637 
L 487.361172 277.263673 
L 493.572675 283.335531 
L 499.784178 299.527154 
L 505.995681 319.260694 
L 512.207183 332.416387 
L 518.418686 308.128953 
L 524.630189 309.646918 
L 530.841692 314.200812 
L 537.053195 320.27267 
L 543.264697 321.284647 
L 549.4762 337.476269 
L 555.687703 326.344529 
L 561.899206 331.404411 
L 568.110708 330.898423 
L 574.322211 324.826564 
L 580.533714 327.356505 
L 586.745217 340.512199 
L 592.95672 342.536152 
L 599.168222 323.3086 
L 605.379725 330.392435 
L 611.591228 343.04214 
L 617.802731 336.464293 
L 624.014234 342.030163 
L 630.225736 338.488246 
L 636.437239 341.524175 
L 642.648742 343.04214 
L 648.860245 343.04214 
L 655.071747 341.018187 
L 661.28325 342.536152 
L 667.494753 341.018187 
L 673.706256 344.054116 
L 679.917759 346.078069 
L 686.129261 343.04214 
" style="fill:none;stroke:#6495ed;stroke-linecap:square;stroke-width:1.5;"/>
    <defs>
     <path d="M 0 1 
C 0.265203 1 0.51958 0.894634 0.707107 0.707107 
C 0.894634 0.51958 1 0.265203 1 0 
C 1 -0.265203 0.894634 -0.51958 0.707107 -0.707107 
C 0.51958 -0.894634 0.265203 -1 0 -1 
C -0.265203 -1 -0.51958 -0.894634 -0.707107 -0.707107 
C -0.894634 -0.51958 -1 -0.265203 -1 0 
C -1 0.265203 -0.894634 0.51958 -0.707107 0.707107 
C -0.51958 0.894634 -0.265203 1 0 1 
z
" id="m80e5dc27ff" style="stroke:#0000ff;"/>
    </defs>
    <g clip-path="url(#pa1f0a7319f)">
     <use style="fill:#6495ed;stroke:#0000ff;" x="77.401989" xlink:href="#m80e5dc27ff" y="342.030163"/>
     <use style="fill:#6495ed;stroke:#0000ff;" x="83.613491" xlink:href="#m80e5dc27ff" y="332.922376"/>
     <use style="fill:#6495ed;stroke:#0000ff;" x="89.824994" xlink:href="#m80e5dc27ff" y="326.850517"/>
     <use style="fill:#6495ed;stroke:#0000ff;" x="96.036497" xlink:href="#m80e5dc27ff" y="326.850517"/>
     <use style="fill:#6495ed;stroke:#0000ff;" x="102.248" xlink:href="#m80e5dc27ff" y="326.850517"/>
     <use style="fill:#6495ed;stroke:#0000ff;" x="108.459503" xlink:href="#m80e5dc27ff" y="310.658894"/>
     <use style="fill:#6495ed;stroke:#0000ff;" x="114.671005" xlink:href="#m80e5dc27ff" y="342.030163"/>
     <use style="fill:#6495ed;stroke:#0000ff;" x="120.882508" xlink:href="#m80e5dc27ff" y="329.886446"/>
     <use style="fill:#6495ed;stroke:#0000ff;" x="127.094011" xlink:href="#m80e5dc27ff" y="320.27267"/>
     <use style="fill:#6495ed;stroke:#0000ff;" x="133.305514" xlink:href="#m80e5dc27ff" y="323.3086"/>
     <use style="fill:#6495ed;stroke:#0000ff;" x="139.517016" xlink:href="#m80e5dc27ff" y="306.105"/>
     <use style="fill:#6495ed;stroke:#0000ff;" x="145.728519" xlink:href="#m80e5dc27ff" y="319.260694"/>
     <use style="fill:#6495ed;stroke:#0000ff;" x="151.940022" xlink:href="#m80e5dc27ff" y="282.829543"/>
     <use style="fill:#6495ed;stroke:#0000ff;" x="158.151525" xlink:href="#m80e5dc27ff" y="309.646918"/>
     <use style="fill:#6495ed;stroke:#0000ff;" x="164.363028" xlink:href="#m80e5dc27ff" y="290.419366"/>
     <use style="fill:#6495ed;stroke:#0000ff;" x="170.57453" xlink:href="#m80e5dc27ff" y="262.590014"/>
     <use style="fill:#6495ed;stroke:#0000ff;" x="176.786033" xlink:href="#m80e5dc27ff" y="164.428302"/>
     <use style="fill:#6495ed;stroke:#0000ff;" x="182.997536" xlink:href="#m80e5dc27ff" y="240.326533"/>
     <use style="fill:#6495ed;stroke:#0000ff;" x="189.209039" xlink:href="#m80e5dc27ff" y="174.042078"/>
     <use style="fill:#6495ed;stroke:#0000ff;" x="195.420542" xlink:href="#m80e5dc27ff" y="228.182816"/>
     <use style="fill:#6495ed;stroke:#0000ff;" x="201.632044" xlink:href="#m80e5dc27ff" y="194.787594"/>
     <use style="fill:#6495ed;stroke:#0000ff;" x="207.843547" xlink:href="#m80e5dc27ff" y="230.206769"/>
     <use style="fill:#6495ed;stroke:#0000ff;" x="214.05505" xlink:href="#m80e5dc27ff" y="89.036058"/>
     <use style="fill:#6495ed;stroke:#0000ff;" x="220.266553" xlink:href="#m80e5dc27ff" y="210.473229"/>
     <use style="fill:#6495ed;stroke:#0000ff;" x="226.478055" xlink:href="#m80e5dc27ff" y="70.314495"/>
     <use style="fill:#6495ed;stroke:#0000ff;" x="232.689558" xlink:href="#m80e5dc27ff" y="50.580955"/>
     <use style="fill:#6495ed;stroke:#0000ff;" x="238.901061" xlink:href="#m80e5dc27ff" y="91.566"/>
     <use style="fill:#6495ed;stroke:#0000ff;" x="245.112564" xlink:href="#m80e5dc27ff" y="153.296561"/>
     <use style="fill:#6495ed;stroke:#0000ff;" x="251.324067" xlink:href="#m80e5dc27ff" y="122.937269"/>
     <use style="fill:#6495ed;stroke:#0000ff;" x="257.535569" xlink:href="#m80e5dc27ff" y="97.13187"/>
     <use style="fill:#6495ed;stroke:#0000ff;" x="263.747072" xlink:href="#m80e5dc27ff" y="97.637858"/>
     <use style="fill:#6495ed;stroke:#0000ff;" x="269.958575" xlink:href="#m80e5dc27ff" y="62.724672"/>
     <use style="fill:#6495ed;stroke:#0000ff;" x="276.170078" xlink:href="#m80e5dc27ff" y="127.997151"/>
     <use style="fill:#6495ed;stroke:#0000ff;" x="282.38158" xlink:href="#m80e5dc27ff" y="130.527092"/>
     <use style="fill:#6495ed;stroke:#0000ff;" x="288.593083" xlink:href="#m80e5dc27ff" y="161.898361"/>
     <use style="fill:#6495ed;stroke:#0000ff;" x="294.804586" xlink:href="#m80e5dc27ff" y="129.009127"/>
     <use style="fill:#6495ed;stroke:#0000ff;" x="301.016089" xlink:href="#m80e5dc27ff" y="109.275587"/>
     <use style="fill:#6495ed;stroke:#0000ff;" x="307.227592" xlink:href="#m80e5dc27ff" y="101.179776"/>
     <use style="fill:#6495ed;stroke:#0000ff;" x="313.439094" xlink:href="#m80e5dc27ff" y="168.476207"/>
     <use style="fill:#6495ed;stroke:#0000ff;" x="319.650597" xlink:href="#m80e5dc27ff" y="164.93429"/>
     <use style="fill:#6495ed;stroke:#0000ff;" x="325.8621" xlink:href="#m80e5dc27ff" y="143.682785"/>
     <use style="fill:#6495ed;stroke:#0000ff;" x="332.073603" xlink:href="#m80e5dc27ff" y="163.922314"/>
     <use style="fill:#6495ed;stroke:#0000ff;" x="338.285106" xlink:href="#m80e5dc27ff" y="176.572019"/>
     <use style="fill:#6495ed;stroke:#0000ff;" x="344.496608" xlink:href="#m80e5dc27ff" y="101.685764"/>
     <use style="fill:#6495ed;stroke:#0000ff;" x="350.708111" xlink:href="#m80e5dc27ff" y="82.458212"/>
     <use style="fill:#6495ed;stroke:#0000ff;" x="356.919614" xlink:href="#m80e5dc27ff" y="100.167799"/>
     <use style="fill:#6495ed;stroke:#0000ff;" x="363.131117" xlink:href="#m80e5dc27ff" y="171.512137"/>
     <use style="fill:#6495ed;stroke:#0000ff;" x="369.342619" xlink:href="#m80e5dc27ff" y="190.739689"/>
     <use style="fill:#6495ed;stroke:#0000ff;" x="375.554122" xlink:href="#m80e5dc27ff" y="259.048097"/>
     <use style="fill:#6495ed;stroke:#0000ff;" x="381.765625" xlink:href="#m80e5dc27ff" y="255.506179"/>
     <use style="fill:#6495ed;stroke:#0000ff;" x="387.977128" xlink:href="#m80e5dc27ff" y="249.940309"/>
     <use style="fill:#6495ed;stroke:#0000ff;" x="394.188631" xlink:href="#m80e5dc27ff" y="161.898361"/>
     <use style="fill:#6495ed;stroke:#0000ff;" x="400.400133" xlink:href="#m80e5dc27ff" y="152.790573"/>
     <use style="fill:#6495ed;stroke:#0000ff;" x="406.611636" xlink:href="#m80e5dc27ff" y="186.185795"/>
     <use style="fill:#6495ed;stroke:#0000ff;" x="412.823139" xlink:href="#m80e5dc27ff" y="224.13491"/>
     <use style="fill:#6495ed;stroke:#0000ff;" x="419.034642" xlink:href="#m80e5dc27ff" y="249.940309"/>
     <use style="fill:#6495ed;stroke:#0000ff;" x="425.246144" xlink:href="#m80e5dc27ff" y="206.931311"/>
     <use style="fill:#6495ed;stroke:#0000ff;" x="431.457647" xlink:href="#m80e5dc27ff" y="178.089983"/>
     <use style="fill:#6495ed;stroke:#0000ff;" x="437.66915" xlink:href="#m80e5dc27ff" y="274.733731"/>
     <use style="fill:#6495ed;stroke:#0000ff;" x="443.880653" xlink:href="#m80e5dc27ff" y="171.006148"/>
     <use style="fill:#6495ed;stroke:#0000ff;" x="450.092156" xlink:href="#m80e5dc27ff" y="265.119955"/>
     <use style="fill:#6495ed;stroke:#0000ff;" x="456.303658" xlink:href="#m80e5dc27ff" y="306.610989"/>
     <use style="fill:#6495ed;stroke:#0000ff;" x="462.515161" xlink:href="#m80e5dc27ff" y="292.443319"/>
     <use style="fill:#6495ed;stroke:#0000ff;" x="468.726664" xlink:href="#m80e5dc27ff" y="281.817566"/>
     <use style="fill:#6495ed;stroke:#0000ff;" x="474.938167" xlink:href="#m80e5dc27ff" y="287.889425"/>
     <use style="fill:#6495ed;stroke:#0000ff;" x="481.14967" xlink:href="#m80e5dc27ff" y="278.781637"/>
     <use style="fill:#6495ed;stroke:#0000ff;" x="487.361172" xlink:href="#m80e5dc27ff" y="277.263673"/>
     <use style="fill:#6495ed;stroke:#0000ff;" x="493.572675" xlink:href="#m80e5dc27ff" y="283.335531"/>
     <use style="fill:#6495ed;stroke:#0000ff;" x="499.784178" xlink:href="#m80e5dc27ff" y="299.527154"/>
     <use style="fill:#6495ed;stroke:#0000ff;" x="505.995681" xlink:href="#m80e5dc27ff" y="319.260694"/>
     <use style="fill:#6495ed;stroke:#0000ff;" x="512.207183" xlink:href="#m80e5dc27ff" y="332.416387"/>
     <use style="fill:#6495ed;stroke:#0000ff;" x="518.418686" xlink:href="#m80e5dc27ff" y="308.128953"/>
     <use style="fill:#6495ed;stroke:#0000ff;" x="524.630189" xlink:href="#m80e5dc27ff" y="309.646918"/>
     <use style="fill:#6495ed;stroke:#0000ff;" x="530.841692" xlink:href="#m80e5dc27ff" y="314.200812"/>
     <use style="fill:#6495ed;stroke:#0000ff;" x="537.053195" xlink:href="#m80e5dc27ff" y="320.27267"/>
     <use style="fill:#6495ed;stroke:#0000ff;" x="543.264697" xlink:href="#m80e5dc27ff" y="321.284647"/>
     <use style="fill:#6495ed;stroke:#0000ff;" x="549.4762" xlink:href="#m80e5dc27ff" y="337.476269"/>
     <use style="fill:#6495ed;stroke:#0000ff;" x="555.687703" xlink:href="#m80e5dc27ff" y="326.344529"/>
     <use style="fill:#6495ed;stroke:#0000ff;" x="561.899206" xlink:href="#m80e5dc27ff" y="331.404411"/>
     <use style="fill:#6495ed;stroke:#0000ff;" x="568.110708" xlink:href="#m80e5dc27ff" y="330.898423"/>
     <use style="fill:#6495ed;stroke:#0000ff;" x="574.322211" xlink:href="#m80e5dc27ff" y="324.826564"/>
     <use style="fill:#6495ed;stroke:#0000ff;" x="580.533714" xlink:href="#m80e5dc27ff" y="327.356505"/>
     <use style="fill:#6495ed;stroke:#0000ff;" x="586.745217" xlink:href="#m80e5dc27ff" y="340.512199"/>
     <use style="fill:#6495ed;stroke:#0000ff;" x="592.95672" xlink:href="#m80e5dc27ff" y="342.536152"/>
     <use style="fill:#6495ed;stroke:#0000ff;" x="599.168222" xlink:href="#m80e5dc27ff" y="323.3086"/>
     <use style="fill:#6495ed;stroke:#0000ff;" x="605.379725" xlink:href="#m80e5dc27ff" y="330.392435"/>
     <use style="fill:#6495ed;stroke:#0000ff;" x="611.591228" xlink:href="#m80e5dc27ff" y="343.04214"/>
     <use style="fill:#6495ed;stroke:#0000ff;" x="617.802731" xlink:href="#m80e5dc27ff" y="336.464293"/>
     <use style="fill:#6495ed;stroke:#0000ff;" x="624.014234" xlink:href="#m80e5dc27ff" y="342.030163"/>
     <use style="fill:#6495ed;stroke:#0000ff;" x="630.225736" xlink:href="#m80e5dc27ff" y="338.488246"/>
     <use style="fill:#6495ed;stroke:#0000ff;" x="636.437239" xlink:href="#m80e5dc27ff" y="341.524175"/>
     <use style="fill:#6495ed;stroke:#0000ff;" x="642.648742" xlink:href="#m80e5dc27ff" y="343.04214"/>
     <use style="fill:#6495ed;stroke:#0000ff;" x="648.860245" xlink:href="#m80e5dc27ff" y="343.04214"/>
     <use style="fill:#6495ed;stroke:#0000ff;" x="655.071747" xlink:href="#m80e5dc27ff" y="341.018187"/>
     <use style="fill:#6495ed;stroke:#0000ff;" x="661.28325" xlink:href="#m80e5dc27ff" y="342.536152"/>
     <use style="fill:#6495ed;stroke:#0000ff;" x="667.494753" xlink:href="#m80e5dc27ff" y="341.018187"/>
     <use style="fill:#6495ed;stroke:#0000ff;" x="673.706256" xlink:href="#m80e5dc27ff" y="344.054116"/>
     <use style="fill:#6495ed;stroke:#0000ff;" x="679.917759" xlink:href="#m80e5dc27ff" y="346.078069"/>
     <use style="fill:#6495ed;stroke:#0000ff;" x="686.129261" xlink:href="#m80e5dc27ff" y="343.04214"/>
    </g>
   </g>
   <g id="patch_3">
    <path d="M 46.965625 361.9155 
L 46.965625 35.7555 
" style="fill:none;stroke:#000000;stroke-linecap:square;stroke-linejoin:miter;stroke-width:0.8;"/>
   </g>
   <g id="patch_4">
    <path d="M 716.565625 361.9155 
L 716.565625 35.7555 
" style="fill:none;stroke:#000000;stroke-linecap:square;stroke-linejoin:miter;stroke-width:0.8;"/>
   </g>
   <g id="patch_5">
    <path d="M 46.965625 361.9155 
L 716.565625 361.9155 
" style="fill:none;stroke:#000000;stroke-linecap:square;stroke-linejoin:miter;stroke-width:0.8;"/>
   </g>
   <g id="patch_6">
    <path d="M 46.965625 35.7555 
L 716.565625 35.7555 
" style="fill:none;stroke:#000000;stroke-linecap:square;stroke-linejoin:miter;stroke-width:0.8;"/>
   </g>
   <g id="text_16">
    <!-- aggiornato il -->
    <g transform="translate(505.995681 158.79636)scale(0.1 -0.1)">
     <use xlink:href="#DejaVuSans-97"/>
     <use x="61.279297" xlink:href="#DejaVuSans-103"/>
     <use x="124.755859" xlink:href="#DejaVuSans-103"/>
     <use x="188.232422" xlink:href="#DejaVuSans-105"/>
     <use x="216.015625" xlink:href="#DejaVuSans-111"/>
     <use x="277.197266" xlink:href="#DejaVuSans-114"/>
     <use x="316.560547" xlink:href="#DejaVuSans-110"/>
     <use x="379.939453" xlink:href="#DejaVuSans-97"/>
     <use x="441.21875" xlink:href="#DejaVuSans-116"/>
     <use x="480.427734" xlink:href="#DejaVuSans-111"/>
     <use x="541.609375" xlink:href="#DejaVuSans-32"/>
     <use x="573.396484" xlink:href="#DejaVuSans-105"/>
     <use x="601.179688" xlink:href="#DejaVuSans-108"/>
    </g>
    <!-- 02-06-2020 -->
    <defs>
     <path d="M 4.890625 31.390625 
L 31.203125 31.390625 
L 31.203125 23.390625 
L 4.890625 23.390625 
z
" id="DejaVuSans-45"/>
    </defs>
    <g transform="translate(505.995681 169.994172)scale(0.1 -0.1)">
     <use xlink:href="#DejaVuSans-48"/>
     <use x="63.623047" xlink:href="#DejaVuSans-50"/>
     <use x="127.246094" xlink:href="#DejaVuSans-45"/>
     <use x="163.330078" xlink:href="#DejaVuSans-48"/>
     <use x="226.953125" xlink:href="#DejaVuSans-54"/>
     <use x="290.576172" xlink:href="#DejaVuSans-45"/>
     <use x="326.660156" xlink:href="#DejaVuSans-50"/>
     <use x="390.283203" xlink:href="#DejaVuSans-48"/>
     <use x="453.90625" xlink:href="#DejaVuSans-50"/>
     <use x="517.529297" xlink:href="#DejaVuSans-48"/>
    </g>
   </g>
   <g id="text_17">
    <!-- Veneto: variazione giornaliera contagio -->
    <defs>
     <path d="M 28.609375 0 
L 0.78125 72.90625 
L 11.078125 72.90625 
L 34.1875 11.53125 
L 57.328125 72.90625 
L 67.578125 72.90625 
L 39.796875 0 
z
" id="DejaVuSans-86"/>
     <path d="M 11.71875 12.40625 
L 22.015625 12.40625 
L 22.015625 0 
L 11.71875 0 
z
M 11.71875 51.703125 
L 22.015625 51.703125 
L 22.015625 39.3125 
L 11.71875 39.3125 
z
" id="DejaVuSans-58"/>
     <path d="M 5.515625 54.6875 
L 48.1875 54.6875 
L 48.1875 46.484375 
L 14.40625 7.171875 
L 48.1875 7.171875 
L 48.1875 0 
L 4.296875 0 
L 4.296875 8.203125 
L 38.09375 47.515625 
L 5.515625 47.515625 
z
" id="DejaVuSans-122"/>
     <path d="M 48.78125 52.59375 
L 48.78125 44.1875 
Q 44.96875 46.296875 41.140625 47.34375 
Q 37.3125 48.390625 33.40625 48.390625 
Q 24.65625 48.390625 19.8125 42.84375 
Q 14.984375 37.3125 14.984375 27.296875 
Q 14.984375 17.28125 19.8125 11.734375 
Q 24.65625 6.203125 33.40625 6.203125 
Q 37.3125 6.203125 41.140625 7.25 
Q 44.96875 8.296875 48.78125 10.40625 
L 48.78125 2.09375 
Q 45.015625 0.34375 40.984375 -0.53125 
Q 36.96875 -1.421875 32.421875 -1.421875 
Q 20.0625 -1.421875 12.78125 6.34375 
Q 5.515625 14.109375 5.515625 27.296875 
Q 5.515625 40.671875 12.859375 48.328125 
Q 20.21875 56 33.015625 56 
Q 37.15625 56 41.109375 55.140625 
Q 45.0625 54.296875 48.78125 52.59375 
z
" id="DejaVuSans-99"/>
    </defs>
    <g transform="translate(264.048437 16.318125)scale(0.12 -0.12)">
     <use xlink:href="#DejaVuSans-86"/>
     <use x="60.658203" xlink:href="#DejaVuSans-101"/>
     <use x="122.181641" xlink:href="#DejaVuSans-110"/>
     <use x="185.560547" xlink:href="#DejaVuSans-101"/>
     <use x="247.083984" xlink:href="#DejaVuSans-116"/>
     <use x="286.292969" xlink:href="#DejaVuSans-111"/>
     <use x="347.474609" xlink:href="#DejaVuSans-58"/>
     <use x="381.166016" xlink:href="#DejaVuSans-32"/>
     <use x="412.953125" xlink:href="#DejaVuSans-118"/>
     <use x="472.132812" xlink:href="#DejaVuSans-97"/>
     <use x="533.412109" xlink:href="#DejaVuSans-114"/>
     <use x="574.525391" xlink:href="#DejaVuSans-105"/>
     <use x="602.308594" xlink:href="#DejaVuSans-97"/>
     <use x="663.587891" xlink:href="#DejaVuSans-122"/>
     <use x="716.078125" xlink:href="#DejaVuSans-105"/>
     <use x="743.861328" xlink:href="#DejaVuSans-111"/>
     <use x="805.042969" xlink:href="#DejaVuSans-110"/>
     <use x="868.421875" xlink:href="#DejaVuSans-101"/>
     <use x="929.945312" xlink:href="#DejaVuSans-32"/>
     <use x="961.732422" xlink:href="#DejaVuSans-103"/>
     <use x="1025.208984" xlink:href="#DejaVuSans-105"/>
     <use x="1052.992188" xlink:href="#DejaVuSans-111"/>
     <use x="1114.173828" xlink:href="#DejaVuSans-114"/>
     <use x="1153.537109" xlink:href="#DejaVuSans-110"/>
     <use x="1216.916016" xlink:href="#DejaVuSans-97"/>
     <use x="1278.195312" xlink:href="#DejaVuSans-108"/>
     <use x="1305.978516" xlink:href="#DejaVuSans-105"/>
     <use x="1333.761719" xlink:href="#DejaVuSans-101"/>
     <use x="1395.285156" xlink:href="#DejaVuSans-114"/>
     <use x="1436.398438" xlink:href="#DejaVuSans-97"/>
     <use x="1497.677734" xlink:href="#DejaVuSans-32"/>
     <use x="1529.464844" xlink:href="#DejaVuSans-99"/>
     <use x="1584.445312" xlink:href="#DejaVuSans-111"/>
     <use x="1645.626953" xlink:href="#DejaVuSans-110"/>
     <use x="1709.005859" xlink:href="#DejaVuSans-116"/>
     <use x="1748.214844" xlink:href="#DejaVuSans-97"/>
     <use x="1809.494141" xlink:href="#DejaVuSans-103"/>
     <use x="1872.970703" xlink:href="#DejaVuSans-105"/>
     <use x="1900.753906" xlink:href="#DejaVuSans-111"/>
    </g>
    <!-- e curva derivata -->
    <g transform="translate(332.572187 29.7555)scale(0.12 -0.12)">
     <use xlink:href="#DejaVuSans-101"/>
     <use x="61.523438" xlink:href="#DejaVuSans-32"/>
     <use x="93.310547" xlink:href="#DejaVuSans-99"/>
     <use x="148.291016" xlink:href="#DejaVuSans-117"/>
     <use x="211.669922" xlink:href="#DejaVuSans-114"/>
     <use x="252.783203" xlink:href="#DejaVuSans-118"/>
     <use x="311.962891" xlink:href="#DejaVuSans-97"/>
     <use x="373.242188" xlink:href="#DejaVuSans-32"/>
     <use x="405.029297" xlink:href="#DejaVuSans-100"/>
     <use x="468.505859" xlink:href="#DejaVuSans-101"/>
     <use x="530.029297" xlink:href="#DejaVuSans-114"/>
     <use x="571.142578" xlink:href="#DejaVuSans-105"/>
     <use x="598.925781" xlink:href="#DejaVuSans-118"/>
     <use x="658.105469" xlink:href="#DejaVuSans-97"/>
     <use x="719.384766" xlink:href="#DejaVuSans-116"/>
     <use x="758.59375" xlink:href="#DejaVuSans-97"/>
    </g>
   </g>
   <g id="legend_1">
    <g id="patch_7">
     <path d="M 575.81875 84.309562 
L 709.565625 84.309562 
Q 711.565625 84.309562 711.565625 82.309562 
L 711.565625 42.7555 
Q 711.565625 40.7555 709.565625 40.7555 
L 575.81875 40.7555 
Q 573.81875 40.7555 573.81875 42.7555 
L 573.81875 82.309562 
Q 573.81875 84.309562 575.81875 84.309562 
z
" style="fill:#ffffff;opacity:0.8;stroke:#cccccc;stroke-linejoin:miter;"/>
    </g>
    <g id="line2d_29">
     <path d="M 577.81875 55.492687 
L 597.81875 55.492687 
" style="fill:none;stroke:#ff7f0e;stroke-linecap:square;stroke-width:3;"/>
    </g>
    <g id="line2d_30"/>
    <g id="text_18">
     <!-- fit: a = 18993.01, -->
     <defs>
      <path d="M 10.59375 45.40625 
L 73.1875 45.40625 
L 73.1875 37.203125 
L 10.59375 37.203125 
z
M 10.59375 25.484375 
L 73.1875 25.484375 
L 73.1875 17.1875 
L 10.59375 17.1875 
z
" id="DejaVuSans-61"/>
      <path d="M 10.984375 1.515625 
L 10.984375 10.5 
Q 14.703125 8.734375 18.5 7.8125 
Q 22.3125 6.890625 25.984375 6.890625 
Q 35.75 6.890625 40.890625 13.453125 
Q 46.046875 20.015625 46.78125 33.40625 
Q 43.953125 29.203125 39.59375 26.953125 
Q 35.25 24.703125 29.984375 24.703125 
Q 19.046875 24.703125 12.671875 31.3125 
Q 6.296875 37.9375 6.296875 49.421875 
Q 6.296875 60.640625 12.9375 67.421875 
Q 19.578125 74.21875 30.609375 74.21875 
Q 43.265625 74.21875 49.921875 64.515625 
Q 56.59375 54.828125 56.59375 36.375 
Q 56.59375 19.140625 48.40625 8.859375 
Q 40.234375 -1.421875 26.421875 -1.421875 
Q 22.703125 -1.421875 18.890625 -0.6875 
Q 15.09375 0.046875 10.984375 1.515625 
z
M 30.609375 32.421875 
Q 37.25 32.421875 41.125 36.953125 
Q 45.015625 41.5 45.015625 49.421875 
Q 45.015625 57.28125 41.125 61.84375 
Q 37.25 66.40625 30.609375 66.40625 
Q 23.96875 66.40625 20.09375 61.84375 
Q 16.21875 57.28125 16.21875 49.421875 
Q 16.21875 41.5 20.09375 36.953125 
Q 23.96875 32.421875 30.609375 32.421875 
z
" id="DejaVuSans-57"/>
      <path d="M 10.6875 12.40625 
L 21 12.40625 
L 21 0 
L 10.6875 0 
z
" id="DejaVuSans-46"/>
      <path d="M 11.71875 12.40625 
L 22.015625 12.40625 
L 22.015625 4 
L 14.015625 -11.625 
L 7.71875 -11.625 
L 11.71875 4 
z
" id="DejaVuSans-44"/>
     </defs>
     <g transform="translate(605.81875 52.353937)scale(0.1 -0.1)">
      <use xlink:href="#DejaVuSans-102"/>
      <use x="35.205078" xlink:href="#DejaVuSans-105"/>
      <use x="62.988281" xlink:href="#DejaVuSans-116"/>
      <use x="102.197266" xlink:href="#DejaVuSans-58"/>
      <use x="135.888672" xlink:href="#DejaVuSans-32"/>
      <use x="167.675781" xlink:href="#DejaVuSans-97"/>
      <use x="228.955078" xlink:href="#DejaVuSans-32"/>
      <use x="260.742188" xlink:href="#DejaVuSans-61"/>
      <use x="344.53125" xlink:href="#DejaVuSans-32"/>
      <use x="376.318359" xlink:href="#DejaVuSans-49"/>
      <use x="439.941406" xlink:href="#DejaVuSans-56"/>
      <use x="503.564453" xlink:href="#DejaVuSans-57"/>
      <use x="567.1875" xlink:href="#DejaVuSans-57"/>
      <use x="630.810547" xlink:href="#DejaVuSans-51"/>
      <use x="694.433594" xlink:href="#DejaVuSans-46"/>
      <use x="726.220703" xlink:href="#DejaVuSans-48"/>
      <use x="789.84375" xlink:href="#DejaVuSans-49"/>
      <use x="853.466797" xlink:href="#DejaVuSans-44"/>
     </g>
     <!-- b = 57.01, c =  0.10 -->
     <defs>
      <path d="M 8.203125 72.90625 
L 55.078125 72.90625 
L 55.078125 68.703125 
L 28.609375 0 
L 18.3125 0 
L 43.21875 64.59375 
L 8.203125 64.59375 
z
" id="DejaVuSans-55"/>
     </defs>
     <g transform="translate(605.81875 63.55175)scale(0.1 -0.1)">
      <use xlink:href="#DejaVuSans-98"/>
      <use x="63.476562" xlink:href="#DejaVuSans-32"/>
      <use x="95.263672" xlink:href="#DejaVuSans-61"/>
      <use x="179.052734" xlink:href="#DejaVuSans-32"/>
      <use x="210.839844" xlink:href="#DejaVuSans-53"/>
      <use x="274.462891" xlink:href="#DejaVuSans-55"/>
      <use x="338.085938" xlink:href="#DejaVuSans-46"/>
      <use x="369.873047" xlink:href="#DejaVuSans-48"/>
      <use x="433.496094" xlink:href="#DejaVuSans-49"/>
      <use x="497.119141" xlink:href="#DejaVuSans-44"/>
      <use x="528.90625" xlink:href="#DejaVuSans-32"/>
      <use x="560.693359" xlink:href="#DejaVuSans-99"/>
      <use x="615.673828" xlink:href="#DejaVuSans-32"/>
      <use x="647.460938" xlink:href="#DejaVuSans-61"/>
      <use x="731.25" xlink:href="#DejaVuSans-32"/>
      <use x="763.037109" xlink:href="#DejaVuSans-32"/>
      <use x="794.824219" xlink:href="#DejaVuSans-48"/>
      <use x="858.447266" xlink:href="#DejaVuSans-46"/>
      <use x="890.234375" xlink:href="#DejaVuSans-49"/>
      <use x="953.857422" xlink:href="#DejaVuSans-48"/>
     </g>
    </g>
    <g id="line2d_31">
     <path d="M 577.81875 74.729875 
L 597.81875 74.729875 
" style="fill:none;stroke:#6495ed;stroke-linecap:square;stroke-width:1.5;"/>
    </g>
    <g id="line2d_32">
     <g>
      <use style="fill:#6495ed;stroke:#0000ff;" x="587.81875" xlink:href="#m80e5dc27ff" y="74.729875"/>
     </g>
    </g>
    <g id="text_19">
     <!-- nuovi positivi -->
     <g transform="translate(605.81875 78.229875)scale(0.1 -0.1)">
      <use xlink:href="#DejaVuSans-110"/>
      <use x="63.378906" xlink:href="#DejaVuSans-117"/>
      <use x="126.757812" xlink:href="#DejaVuSans-111"/>
      <use x="187.939453" xlink:href="#DejaVuSans-118"/>
      <use x="247.119141" xlink:href="#DejaVuSans-105"/>
      <use x="274.902344" xlink:href="#DejaVuSans-32"/>
      <use x="306.689453" xlink:href="#DejaVuSans-112"/>
      <use x="370.166016" xlink:href="#DejaVuSans-111"/>
      <use x="431.347656" xlink:href="#DejaVuSans-115"/>
      <use x="483.447266" xlink:href="#DejaVuSans-105"/>
      <use x="511.230469" xlink:href="#DejaVuSans-116"/>
      <use x="550.439453" xlink:href="#DejaVuSans-105"/>
      <use x="578.222656" xlink:href="#DejaVuSans-118"/>
      <use x="637.402344" xlink:href="#DejaVuSans-105"/>
     </g>
    </g>
   </g>
  </g>
 </g>
 <defs>
  <clipPath id="pa1f0a7319f">
   <rect height="326.16" width="669.6" x="46.965625" y="35.7555"/>
  </clipPath>
 </defs>
</svg>
